<?xml version="1.0" encoding="UTF-8"?>
<!DOCTYPE svg PUBLIC "-//W3C//DTD SVG 1.1//EN" "http://www.w3.org/Graphics/SVG/1.1/DTD/svg11.dtd">
<!-- Creator: CorelDRAW -->
<svg xmlns="http://www.w3.org/2000/svg" xml:space="preserve" width="6.56818in" height="8.5in" version="1.1" style="shape-rendering:geometricPrecision; text-rendering:geometricPrecision; image-rendering:optimizeQuality; fill-rule:evenodd; clip-rule:evenodd"
viewBox="0 0 6568.18 8500"
 xmlns:xlink="http://www.w3.org/1999/xlink"
 xmlns:xodm="http://www.corel.com/coreldraw/odm/2003">
 <defs>
  <style type="text/css">
   <![CDATA[
    .fil0 {fill:#EF7F1A;fill-rule:nonzero}
   ]]>
  </style>
 </defs>
 <g id="Layer_x0020_1">
  <metadata id="CorelCorpID_0Corel-Layer"/>
  <g id="_2337388088336">
   <path class="fil0" d="M51.18 2320.62c-77.27,19.32 -84.78,30.05 -96.59,129.86 -4.29,32.2 -11.81,66.54 -17.17,76.2 -4.29,9.66 -104.1,54.74 -221.09,100.88 -830.68,326.26 -1446.72,579.55 -1720.39,709.41 -174.94,82.64 -238.26,97.66 -451.83,111.62 -91.22,5.37 -182.45,15.03 -202.84,21.47 -108.4,34.34 -388.51,62.25 -665.4,67.61l-123.42 2.15 -50.44 85.86c-50.44,83.71 -50.44,85.86 -31.13,107.32 36.49,38.64 37.56,82.64 5.37,189.96 -32.2,106.25 -36.49,191.03 -20.39,397.1 5.37,71.91 4.29,94.44 -6.44,94.44 -31.13,0 -89.08,60.1 -118.06,122.35 -53.66,113.76 -79.42,368.12 -51.51,501.2 13.95,62.25 13.95,66.54 3.22,170.64 -5.37,57.95 17.17,255.43 30.05,261.87 2.15,1.07 31.13,21.47 65.47,44 78.35,52.59 132.01,110.54 141.67,153.47 18.24,84.78 179.23,166.35 381,194.26 111.62,16.1 1039.96,104.1 1166.6,111.62l34.34 2.15 5.37 -171.72c7.51,-246.84 53.66,-422.85 156.69,-599.94 301.58,-514.08 984.15,-722.28 1507.89,-460.42 339.14,170.64 568.81,455.05 641.79,796.34 23.61,113.76 31.13,391.73 13.95,557.01l-8.59 88.01 3221.84 0c3064.08,0 3221.84,-1.07 3214.33,-19.32 -35.42,-93.37 -60.1,-348.8 -48.3,-494.76 30.05,-343.43 189.96,-608.52 492.61,-814.58 428.22,-292.99 909.03,-302.65 1334.03,-25.76 256.5,168.5 426.07,420.71 493.69,737.31 19.32,90.15 16.1,365.97 -5.37,461.49 -8.59,40.78 -15.03,76.2 -12.88,78.35 7.51,8.59 414.27,-21.47 513.01,-36.49 193.18,-30.05 271.53,-69.76 326.26,-163.13 25.76,-44 30.05,-61.17 30.05,-136.3 -1.07,-47.22 -9.66,-125.57 -21.47,-174.94 -19.32,-84.78 -19.32,-94.44 -2.15,-203.91 33.27,-213.57 42.93,-328.41 44,-533.4 1.07,-188.89 -1.07,-209.28 -24.68,-279.04 -49.37,-144.89 -110.54,-203.91 -303.72,-294.07 -238.26,-111.62 -679.36,-236.11 -1253.53,-354.17 -561.3,-115.91 -1635.61,-225.38 -2204.42,-226.45l-245.77 0 -253.28 -149.18c-872.54,-511.93 -1709.66,-948.74 -1987.63,-1036.74 -534.47,-168.5 -1715.03,-209.28 -3103.79,-107.32l-201.77 15.03 -50.44 -32.2c-98.74,-62.25 -239.33,-95.52 -318.75,-75.12l0 -0.01zm2052.02 333.78c13.95,48.3 62.25,327.34 94.44,552.72 35.42,242.55 79.42,578.47 76.2,581.69 -7.51,7.51 -1794.45,-42.93 -2204.42,-62.25 -383.14,-17.17 -497.98,-60.1 -614.96,-230.74 -66.54,-97.66 -93.37,-241.48 -63.32,-349.88 12.88,-42.93 60.1,-79.42 206.06,-158.84 396.02,-212.5 857.51,-310.16 1736.49,-364.9 264.01,-16.1 311.24,-17.17 547.35,-17.17l208.21 1.07 13.95 48.3 0 -0.01zm696.53 -10.73c411.05,38.64 769.51,92.3 1002.4,149.18 225.38,55.81 484.03,174.94 772.73,356.31 151.33,94.44 406.76,277.97 407.83,290.85 0,5.37 -15.03,8.59 -34.34,8.59 -51.51,0 -122.35,39.71 -150.25,83.71 -25.76,41.86 -32.2,121.28 -16.1,202.84l9.66 46.15 -970.2 0 -970.2 0 -188.89 -579.55 -187.82 -579.55 50.44 0c26.83,0 151.33,9.66 274.75,21.47z"/>
   <path class="fil0" d="M-923.31 4698.91c-462.56,88.01 -830.68,472.22 -899.37,939.08 -18.24,125.57 -7.51,313.38 25.76,440.03 121.28,467.93 533.4,806 1016.35,833.9 544.13,31.13 1029.23,-335.92 1154.8,-872.54 30.05,-125.57 27.9,-373.49 -4.29,-501.2 -100.88,-405.68 -411.05,-719.07 -815.66,-824.24 -112.69,-28.98 -360.61,-36.49 -477.59,-15.03l-0 -0zm405.68 332.7c90.15,22.54 224.31,91.22 300.51,152.4 124.49,100.88 225.38,259.72 269.38,421.78 24.68,93.37 25.76,279.04 0,381 -62.25,254.36 -259.72,471.15 -507.64,557.01 -569.89,199.62 -1152.65,-297.28 -1039.96,-888.64 32.2,-163.13 100.88,-294.07 221.09,-414.27 119.13,-118.06 254.36,-191.03 413.19,-221.09 90.15,-17.17 252.21,-11.81 343.43,11.81l0 -0z"/>
   <path class="fil0" d="M-600.27 5296.7c2.15,96.59 7.51,179.23 12.88,184.6 18.24,18.24 115.91,-62.25 215.72,-178.16l54.74 -61.17 -51.51 -33.27c-55.81,-35.42 -140.59,-69.76 -198.55,-80.49l-36.49 -6.44 3.22 174.94 0 -0z"/>
   <path class="fil0" d="M-951.22 5155.03c-66.54,23.61 -179.23,88.01 -176.01,100.88 3.22,13.95 254.36,231.82 267.24,231.82 7.51,0 16.1,-7.51 19.32,-17.17 8.59,-21.47 8.59,-136.3 -1.07,-248.99 -7.51,-101.96 -8.59,-103.03 -109.47,-66.54l0 -0z"/>
   <path class="fil0" d="M-287.96 5525.3c-61.17,68.69 -112.69,132.01 -114.84,140.59 -6.44,26.83 49.37,37.56 168.5,31.13 62.25,-3.22 129.86,-8.59 149.18,-11.81 35.42,-5.37 36.49,-6.44 28.98,-45.08 -7.51,-47.22 -68.69,-179.23 -98.74,-215.72l-20.39 -25.76 -112.69 126.64 0 0z"/>
   <path class="fil0" d="M-1306.46 5467.34c-33.27,47.22 -72.98,142.74 -82.64,199.62l-6.44 35.42 166.35 0c177.08,0 215.72,-9.66 194.26,-47.22 -13.95,-25.76 -218.94,-231.82 -229.67,-231.82 -5.37,0 -23.61,19.32 -41.86,44l-0 -0z"/>
   <path class="fil0" d="M-741.94 5526.37c-38.64,37.56 0,93.37 47.22,68.69 27.9,-15.03 27.9,-60.1 1.07,-75.12 -26.83,-13.95 -28.98,-13.95 -48.3,6.44l0 -0z"/>
   <path class="fil0" d="M-779.5 5706.67c-61.17,34.34 -72.98,119.13 -23.61,168.5 46.15,45.08 108.4,46.15 153.47,1.07 45.08,-45.08 44,-107.32 -1.07,-153.47 -35.42,-34.34 -83.71,-40.78 -128.79,-16.1z"/>
   <path class="fil0" d="M-984.49 5760.34c-20.39,24.68 -8.59,65.47 19.32,68.69 47.22,7.51 71.91,-34.34 38.64,-66.54 -20.39,-21.47 -40.78,-21.47 -57.95,-2.15z"/>
   <path class="fil0" d="M-510.12 5773.21c-28.98,20.39 -30.05,38.64 -3.22,62.25 26.83,24.68 65.47,6.44 65.47,-31.13 0,-35.42 -32.2,-52.59 -62.25,-31.13l0 0z"/>
   <path class="fil0" d="M-1322.56 5913.81c-82.64,6.44 -81.57,5.37 -63.32,69.76 17.17,59.03 65.47,156.69 98.74,199.62l19.32 24.68 110.54 -130.93c61.17,-71.91 111.62,-138.45 112.69,-148.11 1.07,-15.03 -15.03,-17.17 -111.62,-18.24 -62.25,0 -136.3,1.07 -166.35,3.22l0 -0z"/>
   <path class="fil0" d="M-335.18 5926.68c-47.22,4.29 -65.47,10.73 -67.61,23.61 -3.22,17.17 225.38,245.77 244.7,245.77 23.61,0 92.3,-151.33 112.69,-244.7l7.51 -34.34 -116.98 2.15c-63.32,1.07 -144.89,4.29 -180.3,7.51l0 0z"/>
   <path class="fil0" d="M-752.67 5998.59c-20.39,19.32 -20.39,21.47 -6.44,48.3 6.44,11.81 22.54,20.39 37.56,20.39 21.47,0 48.3,-25.76 48.3,-47.22 0,-10.73 -34.34,-38.64 -48.3,-38.64 -7.51,0 -22.54,7.51 -31.13,17.17l0 0z"/>
   <path class="fil0" d="M-953.36 6182.11c-92.3,96.59 -149.18,162.06 -149.18,173.86 0,26.83 192.11,108.4 253.28,108.4l28.98 0 -7.51 -153.47c-9.66,-178.16 -13.95,-200.69 -37.56,-200.69 -9.66,0 -49.37,32.2 -88.01,71.91l-0 -0z"/>
   <path class="fil0" d="M-580.95 6119.87c-6.44,10.73 -25.76,180.3 -31.13,276.89 -3.22,64.39 -2.15,67.61 20.39,67.61 84.78,0 281.19,-72.98 266.16,-98.74 -5.37,-7.51 -56.88,-68.69 -115.91,-135.23 -99.81,-112.69 -125.57,-133.08 -139.52,-110.54z"/>
   <path class="fil0" d="M7776.31 4698.91c-341.29,62.25 -640.72,285.48 -797.41,595.64 -239.33,473.3 -105.18,1068.94 310.16,1382.32 120.2,90.15 201.77,134.15 333.78,178.16 294.07,97.66 584.91,75.12 860.73,-65.47 592.42,-302.65 788.83,-1054.99 420.71,-1609.85 -241.48,-363.83 -698.67,-559.15 -1127.97,-480.81l-0 -0zm413.2 338.07c373.49,105.18 621.4,475.44 570.96,854.29 -71.91,545.2 -639.65,854.29 -1132.26,616.03 -256.5,-124.49 -425,-377.78 -442.17,-665.4 -21.47,-359.53 206.06,-686.87 553.79,-799.56 130.93,-42.93 310.16,-45.08 449.68,-5.37z"/>
   <path class="fil0" d="M8091.84 5296.7c3.22,96.59 9.66,179.23 15.03,184.6 13.95,15.03 56.88,-19.32 166.35,-130.93l101.96 -104.1 -24.68 -19.32c-53.66,-42.93 -202.84,-104.1 -252.21,-104.1 -10.73,0 -11.81,35.42 -6.44,173.86l0 -0z"/>
   <path class="fil0" d="M7756.99 5148.59c-53.66,17.17 -142.74,62.25 -174.94,88.01l-24.68 20.39 129.86 114.84c71.91,64.39 137.38,115.91 144.89,115.91 24.68,0 28.98,-41.86 21.47,-199.62 -8.59,-173.86 -4.29,-168.5 -96.59,-139.52z"/>
   <path class="fil0" d="M8403.08 5526.37c-63.32,69.76 -114.84,135.23 -114.84,145.96 0,11.81 11.81,19.32 40.78,23.61 47.22,7.51 298.36,-7.51 310.16,-18.24 16.1,-17.17 -54.74,-196.4 -100.88,-253.28l-20.39 -25.76 -114.84 127.72 -0 0z"/>
   <path class="fil0" d="M7388.87 5463.05c-41.86,66.54 -75.12,143.81 -83.71,197.47l-7.51 41.86 163.13 0c92.3,0 172.79,-5.37 184.6,-10.73 18.24,-10.73 19.32,-13.95 5.37,-40.78 -8.59,-16.1 -63.32,-76.2 -122.35,-134.15l-106.25 -106.25 -33.27 52.59 0 0z"/>
   <path class="fil0" d="M7953.39 5521c-25.76,15.03 -24.68,60.1 2.15,74.05 47.22,24.68 85.86,-31.13 47.22,-68.69 -19.32,-20.39 -24.68,-20.39 -49.37,-5.37z"/>
   <path class="fil0" d="M7913.68 5705.6c-52.59,31.13 -70.83,108.4 -37.56,156.69 9.66,13.95 34.34,31.13 53.66,39.71 31.13,12.88 41.86,12.88 72.98,0 106.25,-44 91.22,-193.18 -20.39,-206.06 -25.76,-3.22 -53.66,1.07 -68.69,9.66l0 -0z"/>
   <path class="fil0" d="M7708.69 5760.34c-20.39,24.68 -8.59,65.47 19.32,68.69 47.22,7.51 71.91,-34.34 38.64,-66.54 -20.39,-21.47 -40.78,-21.47 -57.95,-2.15z"/>
   <path class="fil0" d="M8176.63 5773.21c-9.66,8.59 -17.17,23.61 -17.17,31.13 0,13.95 27.9,48.3 38.64,48.3 21.47,0 47.22,-26.83 47.22,-48.3 0,-15.03 -8.59,-31.13 -20.39,-37.56 -26.83,-13.95 -28.98,-13.95 -48.3,6.44l0 -0z"/>
   <path class="fil0" d="M7359.9 5915.95c-64.39,6.44 -64.39,6.44 -61.17,38.64 9.66,74.05 111.62,266.16 130.93,245.77 61.17,-65.47 225.38,-268.31 222.16,-276.89 -4.29,-12.88 -188.89,-18.24 -291.92,-7.51z"/>
   <path class="fil0" d="M8360.15 5924.54c-72.98,5.37 -84.78,20.39 -50.44,64.39 24.68,33.27 214.65,207.13 225.38,207.13 3.22,0 21.47,-25.76 39.71,-56.88 31.13,-51.51 55.81,-119.13 71.91,-193.18l6.44 -28.98 -114.84 2.15c-64.39,1.07 -143.81,3.22 -178.16,5.37l0 -0z"/>
   <path class="fil0" d="M7934.07 6002.88c-17.17,33.27 4.29,66.54 40.78,62.25 22.54,-2.15 30.05,-9.66 32.2,-34.34 5.37,-48.3 -50.44,-69.76 -72.98,-27.9z"/>
   <path class="fil0" d="M7699.03 6225.04c-60.1,63.32 -108.4,121.28 -108.4,128.79 0,30.05 184.6,110.54 254.36,110.54l27.9 0 -7.51 -132.01c-10.73,-192.11 -16.1,-222.16 -38.64,-222.16 -10.73,0 -67.61,51.51 -127.72,114.84l0 0z"/>
   <path class="fil0" d="M8111.16 6119.87c-7.51,12.88 -24.68,154.55 -31.13,260.8 -4.29,82.64 -4.29,83.71 20.39,83.71 48.3,0 139.52,-23.61 207.13,-54.74l68.69 -31.13 -20.39 -24.68c-69.76,-88.01 -212.5,-243.63 -224.31,-243.63 -7.51,0 -16.1,4.29 -20.39,9.66l0 0z"/>
  </g>
 </g>
</svg>
