<?xml version="1.0" encoding="UTF-8"?>
<!DOCTYPE svg PUBLIC "-//W3C//DTD SVG 1.1//EN" "http://www.w3.org/Graphics/SVG/1.1/DTD/svg11.dtd">
<!-- Creator: CorelDRAW -->
<svg xmlns="http://www.w3.org/2000/svg" xml:space="preserve" width="8.5in" height="11in" version="1.1" style="shape-rendering:geometricPrecision; text-rendering:geometricPrecision; image-rendering:optimizeQuality; fill-rule:evenodd; clip-rule:evenodd"
viewBox="0 0 8500 11000"
 xmlns:xlink="http://www.w3.org/1999/xlink"
 xmlns:xodm="http://www.corel.com/coreldraw/odm/2003">
 <defs>
  <style type="text/css">
   <![CDATA[
    .fil0 {fill:none}
    .fil1 {fill:#FF6633;fill-rule:nonzero}
   ]]>
  </style>
 </defs>
 <g id="Layer_x0020_1">
  <metadata id="CorelCorpID_0Corel-Layer"/>
  <rect class="fil0" x="-8107.83" y="-1779.49" width="17000" height="17000"/>
  <g id="_2337456701024">
   <path class="fil1" d="M-3280.6 3967.59c-89.33,22.33 -98.01,34.74 -111.66,150.11 -4.96,37.22 -13.65,76.92 -19.85,88.08 -4.96,11.17 -120.34,63.28 -255.57,116.62 -960.24,377.15 -1672.36,669.94 -1988.72,820.05 -202.22,95.53 -275.42,112.9 -522.3,129.03 -105.45,6.2 -210.9,17.37 -234.48,24.81 -125.3,39.7 -449.11,71.96 -769.19,78.16l-142.67 2.48 -58.31 99.25c-58.31,96.77 -58.31,99.25 -35.98,124.06 42.18,44.66 43.42,95.53 6.2,219.59 -37.22,122.82 -42.18,220.83 -23.57,459.03 6.2,83.12 4.96,109.17 -7.44,109.17 -35.98,0 -102.97,69.48 -136.47,141.43 -62.03,131.5 -91.81,425.54 -59.55,579.37 16.13,71.96 16.13,76.92 3.72,197.26 -6.2,66.99 19.85,295.27 34.74,302.71 2.48,1.24 35.98,24.81 75.68,50.87 90.57,60.79 152.6,127.78 163.76,177.41 21.09,98.01 207.19,192.3 440.42,224.55 129.02,18.61 1202.17,120.34 1348.56,129.03l39.7 2.48 6.2 -198.5c8.69,-285.34 62.03,-488.8 181.13,-693.51 348.62,-594.26 1137.65,-834.94 1743.07,-532.23 392.04,197.26 657.53,526.02 741.89,920.54 27.3,131.5 35.98,452.83 16.13,643.89l-9.93 101.73 3724.35 0c3541.98,0 3724.35,-1.24 3715.67,-22.33 -40.94,-107.94 -69.48,-403.2 -55.83,-571.93 34.74,-397 219.59,-703.43 569.45,-941.63 495.01,-338.69 1050.81,-349.85 1542.09,-29.78 296.51,194.78 492.53,486.33 570.69,852.31 22.33,104.21 18.61,423.05 -6.2,533.47 -9.93,47.14 -17.37,88.08 -14.89,90.56 8.68,9.93 478.88,-24.81 593.02,-42.18 223.31,-34.74 313.88,-80.64 377.15,-188.57 29.78,-50.87 34.74,-70.71 34.74,-157.56 -1.24,-54.59 -11.17,-145.15 -24.81,-202.22 -22.33,-98.01 -22.33,-109.17 -2.48,-235.72 38.46,-246.89 49.63,-379.63 50.87,-616.59 1.24,-218.35 -1.24,-241.92 -28.54,-322.56 -57.07,-167.48 -127.78,-235.72 -351.09,-339.93 -275.42,-129.03 -785.31,-272.94 -1449.05,-409.41 -648.85,-133.99 -1890.71,-260.53 -2548.24,-261.77l-284.1 0 -292.79 -172.44c-1008.63,-591.78 -1976.31,-1096.71 -2297.64,-1198.44 -617.83,-194.78 -1982.52,-241.92 -3587.88,-124.06l-233.24 17.37 -58.31 -37.22c-114.14,-71.95 -276.66,-110.41 -368.46,-86.84l0 -0.01zm2372.07 385.83c16.13,55.83 71.96,378.39 109.17,638.92 40.94,280.38 91.81,668.7 88.08,672.42 -8.68,8.68 -2074.32,-49.63 -2548.24,-71.96 -442.91,-19.85 -575.65,-69.48 -710.88,-266.73 -76.92,-112.9 -107.94,-279.14 -73.2,-404.44 14.89,-49.63 69.48,-91.81 238.2,-183.61 457.79,-245.64 991.26,-358.54 2007.33,-421.81 305.19,-18.61 359.78,-19.85 632.72,-19.85l240.68 1.24 16.13 55.83 0 -0zm805.17 -12.41c475.16,44.67 889.53,106.7 1158.74,172.45 260.53,64.51 559.52,202.22 893.25,411.89 174.93,109.17 470.2,321.32 471.44,336.21 0,6.2 -17.37,9.93 -39.7,9.93 -59.55,0 -141.43,45.9 -173.69,96.77 -29.78,48.39 -37.22,140.19 -18.61,234.48l11.17 53.34 -1121.52 0 -1121.52 0 -218.35 -669.94 -217.11 -669.93 58.31 0c31.01,0 174.93,11.17 317.6,24.81z"/>
   <path class="fil1" d="M-4407.09 6716.81c-534.71,101.73 -960.24,545.87 -1039.65,1085.55 -21.09,145.15 -8.68,362.26 29.78,508.66 140.19,540.91 616.59,931.71 1174.87,963.96 629,35.98 1189.76,-388.31 1334.91,-1008.63 34.74,-145.15 32.26,-431.74 -4.96,-579.37 -116.62,-468.96 -475.16,-831.22 -942.87,-952.8 -130.26,-33.5 -416.85,-42.18 -552.07,-17.37l-0 -0zm468.96 384.59c104.21,26.05 259.29,105.45 347.37,176.17 143.91,116.62 260.53,300.23 311.39,487.57 28.54,107.94 29.78,322.56 0,440.42 -71.95,294.03 -300.23,544.63 -586.81,643.89 -658.77,230.76 -1332.43,-343.65 -1202.17,-1027.24 37.22,-188.57 116.62,-339.93 255.57,-478.88 137.7,-136.47 294.02,-220.83 477.64,-255.57 104.21,-19.85 291.55,-13.65 397,13.65l0 -0z"/>
   <path class="fil1" d="M-4033.66 7407.84c2.48,111.66 8.69,207.19 14.89,213.39 21.09,21.09 133.99,-71.96 249.37,-205.94l63.27 -70.71 -59.55 -38.46c-64.51,-40.94 -162.52,-80.64 -229.52,-93.05l-42.18 -7.44 3.72 202.22 0 -0z"/>
   <path class="fil1" d="M-4439.35 7244.07c-76.92,27.3 -207.19,101.73 -203.46,116.62 3.72,16.13 294.03,267.98 308.92,267.98 8.68,0 18.61,-8.69 22.33,-19.85 9.93,-24.81 9.93,-157.56 -1.24,-287.82 -8.69,-117.86 -9.93,-119.1 -126.54,-76.92l0 -0z"/>
   <path class="fil1" d="M-3672.64 7672.09c-70.71,79.4 -130.26,152.59 -132.74,162.52 -7.44,31.02 57.07,43.42 194.78,35.98 71.96,-3.72 150.12,-9.93 172.45,-13.65 40.94,-6.2 42.18,-7.44 33.5,-52.11 -8.68,-54.59 -79.4,-207.19 -114.14,-249.36l-23.57 -29.78 -130.26 146.4 0 0z"/>
   <path class="fil1" d="M-4849.99 7605.09c-38.46,54.59 -84.36,165 -95.53,230.76l-7.44 40.94 192.3 0c204.7,0 249.36,-11.17 224.55,-54.59 -16.13,-29.78 -253.09,-267.98 -265.49,-267.98 -6.2,0 -27.29,22.33 -48.38,50.87l-0 -0z"/>
   <path class="fil1" d="M-4197.43 7673.33c-44.66,43.42 0,107.94 54.59,79.4 32.26,-17.37 32.26,-69.48 1.24,-86.84 -31.02,-16.13 -33.5,-16.13 -55.83,7.44l0 -0z"/>
   <path class="fil1" d="M-4240.85 7881.76c-70.71,39.7 -84.36,137.71 -27.29,194.78 53.35,52.11 125.3,53.34 177.41,1.24 52.11,-52.11 50.87,-124.06 -1.24,-177.41 -40.94,-39.7 -96.77,-47.15 -148.87,-18.61z"/>
   <path class="fil1" d="M-4477.81 7943.79c-23.57,28.54 -9.92,75.68 22.33,79.4 54.59,8.68 83.12,-39.7 44.66,-76.92 -23.57,-24.81 -47.15,-24.81 -67,-2.48z"/>
   <path class="fil1" d="M-3929.45 7958.67c-33.5,23.57 -34.74,44.67 -3.72,71.96 31.01,28.54 75.68,7.44 75.68,-35.98 0,-40.94 -37.22,-60.79 -71.96,-35.98l0 0z"/>
   <path class="fil1" d="M-4868.6 8121.2c-95.53,7.44 -94.29,6.2 -73.2,80.64 19.85,68.24 75.68,181.13 114.14,230.76l22.33 28.54 127.78 -151.35c70.71,-83.12 129.02,-160.04 130.26,-171.2 1.24,-17.37 -17.37,-19.85 -129.02,-21.09 -71.96,0 -157.56,1.24 -192.3,3.72l0 -0z"/>
   <path class="fil1" d="M-3727.23 8136.08c-54.59,4.96 -75.67,12.41 -78.16,27.29 -3.72,19.85 260.53,284.1 282.86,284.1 27.29,0 106.69,-174.93 130.26,-282.86l8.69 -39.7 -135.23 2.48c-73.2,1.24 -167.48,4.96 -208.43,8.68l0 0z"/>
   <path class="fil1" d="M-4209.83 8219.2c-23.57,22.33 -23.57,24.81 -7.44,55.83 7.44,13.65 26.05,23.57 43.42,23.57 24.81,0 55.83,-29.78 55.83,-54.59 0,-12.41 -39.7,-44.67 -55.83,-44.67 -8.68,0 -26.05,8.69 -35.98,19.85l0 0z"/>
   <path class="fil1" d="M-4441.83 8431.35c-106.69,111.66 -172.44,187.33 -172.44,200.98 0,31.02 222.07,125.31 292.79,125.31l33.5 0 -8.68 -177.41c-11.17,-205.94 -16.13,-232 -43.42,-232 -11.17,0 -57.07,37.22 -101.73,83.12l-0 -0z"/>
   <path class="fil1" d="M-4011.33 8359.39c-7.44,12.41 -29.78,208.43 -35.98,320.08 -3.72,74.44 -2.48,78.16 23.57,78.16 98.01,0 325.04,-84.37 307.67,-114.14 -6.2,-8.68 -65.75,-79.4 -133.98,-156.32 -115.38,-130.26 -145.15,-153.83 -161.28,-127.78z"/>
   <path class="fil1" d="M5649.4 6716.81c-394.52,71.96 -740.65,330.01 -921.78,688.55 -276.66,547.12 -121.58,1235.67 358.54,1597.93 138.95,104.21 233.24,155.08 385.83,205.94 339.93,112.9 676.14,86.84 994.98,-75.67 684.82,-349.85 911.86,-1219.54 486.33,-1860.94 -279.14,-420.57 -807.65,-646.36 -1303.89,-555.8l-0 -0zm477.64 390.8c431.74,121.58 718.32,549.6 660.01,987.54 -83.12,630.24 -739.41,987.54 -1308.86,712.11 -296.51,-143.91 -491.29,-436.7 -511.13,-769.19 -24.81,-415.61 238.2,-794 640.16,-924.26 151.36,-49.62 358.54,-52.11 519.82,-6.2z"/>
   <path class="fil1" d="M6014.15 7407.84c3.72,111.66 11.17,207.19 17.37,213.39 16.13,17.37 65.75,-22.33 192.3,-151.36l117.86 -120.34 -28.54 -22.33c-62.03,-49.63 -234.48,-120.34 -291.55,-120.34 -12.41,0 -13.65,40.94 -7.44,200.98l0 -0z"/>
   <path class="fil1" d="M5627.07 7236.63c-62.03,19.85 -165,71.96 -202.22,101.73l-28.53 23.57 150.11 132.75c83.12,74.44 158.8,133.99 167.48,133.99 28.54,0 33.5,-48.39 24.81,-230.76 -9.93,-200.98 -4.96,-194.78 -111.66,-161.28z"/>
   <path class="fil1" d="M6373.93 7673.33c-73.2,80.64 -132.75,156.32 -132.75,168.72 0,13.65 13.65,22.33 47.15,27.3 54.59,8.68 344.89,-8.69 358.54,-21.09 18.61,-19.85 -63.28,-227.03 -116.62,-292.79l-23.57 -29.78 -132.74 147.64 -0 0z"/>
   <path class="fil1" d="M5201.54 7600.13c-48.38,76.92 -86.84,166.24 -96.77,228.28l-8.69 48.38 188.57 0c106.69,0 199.74,-6.2 213.39,-12.41 21.09,-12.41 22.33,-16.13 6.2,-47.14 -9.93,-18.61 -73.2,-88.09 -141.43,-155.08l-122.82 -122.82 -38.46 60.79 0 0z"/>
   <path class="fil1" d="M5854.11 7667.13c-29.78,17.37 -28.54,69.48 2.48,85.61 54.59,28.54 99.25,-35.98 54.59,-79.4 -22.33,-23.57 -28.54,-23.57 -57.07,-6.2z"/>
   <path class="fil1" d="M5808.2 7880.52c-60.79,35.98 -81.88,125.3 -43.42,181.13 11.17,16.13 39.7,35.98 62.03,45.91 35.98,14.89 48.38,14.89 84.36,0 122.82,-50.87 105.45,-223.31 -23.57,-238.2 -29.78,-3.72 -62.03,1.24 -79.4,11.17l0 -0z"/>
   <path class="fil1" d="M5571.24 7943.79c-23.57,28.54 -9.93,75.68 22.33,79.4 54.59,8.68 83.12,-39.7 44.66,-76.92 -23.57,-24.81 -47.15,-24.81 -66.99,-2.48z"/>
   <path class="fil1" d="M6112.16 7958.67c-11.17,9.93 -19.85,27.3 -19.85,35.98 0,16.13 32.25,55.83 44.66,55.83 24.81,0 54.59,-31.01 54.59,-55.83 0,-17.37 -9.93,-35.98 -23.57,-43.42 -31.01,-16.13 -33.5,-16.13 -55.83,7.44l0 -0z"/>
   <path class="fil1" d="M5168.04 8123.68c-74.44,7.44 -74.44,7.44 -70.72,44.66 11.17,85.6 129.03,307.67 151.36,284.1 70.71,-75.68 260.53,-310.15 256.81,-320.08 -4.96,-14.89 -218.35,-21.09 -337.45,-8.68z"/>
   <path class="fil1" d="M6324.3 8133.6c-84.36,6.2 -98.01,23.57 -58.31,74.44 28.54,38.46 248.13,239.44 260.53,239.44 3.72,0 24.81,-29.78 45.9,-65.75 35.98,-59.55 64.51,-137.71 83.12,-223.31l7.44 -33.5 -132.74 2.48c-74.44,1.24 -166.24,3.72 -205.94,6.2l0 -0z"/>
   <path class="fil1" d="M5831.78 8224.17c-19.85,38.46 4.96,76.92 47.15,71.96 26.05,-2.48 34.74,-11.17 37.22,-39.7 6.2,-55.83 -58.31,-80.64 -84.36,-32.26z"/>
   <path class="fil1" d="M5560.08 8480.98c-69.48,73.2 -125.31,140.19 -125.31,148.87 0,34.74 213.39,127.78 294.03,127.78l32.26 0 -8.69 -152.6c-12.41,-222.07 -18.61,-256.81 -44.66,-256.81 -12.41,0 -78.16,59.55 -147.63,132.75l0 0z"/>
   <path class="fil1" d="M6036.48 8359.39c-8.68,14.89 -28.54,178.65 -35.98,301.47 -4.96,95.53 -4.96,96.77 23.57,96.77 55.83,0 161.28,-27.3 239.44,-63.28l79.4 -35.98 -23.57 -28.53c-80.64,-101.73 -245.64,-281.63 -259.29,-281.63 -8.69,0 -18.61,4.96 -23.57,11.17l0 0z"/>
  </g>
 </g>
</svg>
